<svg width="233" height="233" viewBox="0 0 233 233" fill="none" xmlns="http://www.w3.org/2000/svg">
<circle cx="116.5" cy="116.5" r="116.5" fill="#1E1E1E"/>
<path d="M81.243 60.4263C81.243 60.9579 79.5438 61.4895 77.526 61.4895C75.5082 61.4895 73.809 61.9148 73.809 62.5527C73.809 63.0843 73.0656 63.6159 72.1098 63.6159C70.1982 63.6159 67.437 66.0613 67.437 67.7624C67.437 68.4003 67.0122 68.9319 66.4812 68.9319C65.9502 68.9319 64.6758 70.8457 63.6138 73.1847C62.5518 75.5237 61.3836 77.4375 60.8526 77.4375C60.4278 77.4375 60.003 79.5639 60.003 82.2219C60.003 84.8799 59.5782 87.0063 58.941 87.0063C58.3038 87.0063 57.879 89.9832 57.879 93.9171C57.879 97.7446 58.3038 100.828 58.7286 100.828C59.2596 100.828 61.065 99.6584 62.7642 98.1699C65.5254 95.7245 66.6936 95.5119 75.7206 95.5119C81.5616 95.5119 85.491 95.9372 85.491 96.5751C85.491 97.1067 86.6592 97.6383 88.0398 97.6383C89.5266 97.6383 91.332 98.3825 92.2878 99.2331C93.1374 100.084 94.6242 100.828 95.4738 100.828C96.4296 100.828 97.173 101.253 97.173 101.891C97.173 102.423 97.9164 102.954 98.766 102.954C99.6156 102.954 100.359 103.38 100.359 104.017C100.359 104.549 100.996 105.081 101.74 105.081C103.12 105.081 108.855 109.652 108.855 110.822C108.855 111.991 111.722 114.649 112.891 114.649C113.422 114.649 114.484 116.032 115.227 117.839C115.97 119.54 116.926 121.029 117.457 121.029C117.988 121.029 118.413 121.773 118.413 122.623C118.413 123.474 118.944 124.218 119.475 124.218C120.112 124.218 120.537 125.175 120.537 126.238C120.537 127.408 120.856 128.471 121.387 128.684C122.873 129.322 127.971 138.04 129.245 142.186C129.989 144.632 130.945 146.545 131.369 146.545C131.9 146.545 132.219 148.247 132.219 150.267C132.219 152.287 132.75 153.988 133.281 153.988C133.918 153.988 134.343 155.37 134.343 157.177C134.343 158.879 134.874 160.367 135.405 160.367C136.042 160.367 136.467 161.537 136.467 162.919C136.467 164.407 137.21 166.215 138.06 167.171C138.91 168.022 139.653 169.298 139.653 169.936C139.653 171.956 144.751 170.255 147.724 167.278C149.105 165.896 150.273 163.982 150.273 163.025C150.273 162.174 150.804 161.43 151.335 161.43C151.972 161.43 152.397 160.473 152.397 159.41C152.397 158.241 152.822 157.071 153.353 156.752C156.008 155.051 156.857 135.701 154.733 125.813C153.99 122.304 153.034 117.839 152.716 115.925C152.397 114.118 151.76 112.523 151.229 112.523C150.698 112.523 150.273 111.566 150.273 110.397C150.273 109.227 149.848 108.27 149.211 108.27C148.68 108.27 148.149 107.101 148.149 105.612C148.149 104.124 147.724 102.954 147.087 102.954C146.556 102.954 146.025 102.21 146.025 101.466C146.025 100.615 144.857 98.5952 143.37 97.0004C141.883 95.4056 140.715 93.7044 140.715 93.2792C140.715 92.7476 137.848 89.4517 134.343 85.7305C130.838 82.1156 127.971 78.7133 127.971 78.2881C127.971 77.8628 127.44 77.4375 126.803 77.4375C126.059 77.4375 124.785 76.5869 123.829 75.5237C122.873 74.5669 120.749 72.9721 118.944 72.1215C117.245 71.271 115.227 69.9951 114.484 69.4635C113.74 68.8256 112.466 67.7624 111.616 67.0182C110.767 66.3802 109.28 65.7423 108.324 65.7423C107.474 65.7423 106.731 65.2107 106.731 64.6791C106.731 64.0412 105.563 63.6159 104.076 63.6159C102.589 63.6159 101.421 63.0843 101.421 62.5527C101.421 61.9148 100.04 61.4895 98.235 61.4895C96.5358 61.4895 95.049 60.9579 95.049 60.4263C95.049 59.7884 92.0754 59.3631 88.146 59.3631C84.2166 59.3631 81.243 59.7884 81.243 60.4263Z" fill="#0186D6"/>
<path d="M132.219 60.4262C132.219 60.9578 131.051 61.4894 129.564 61.4894C128.077 61.4894 126.909 61.9147 126.909 62.5526C126.909 63.0842 125.953 63.6158 124.785 63.6158C123.617 63.6158 122.661 63.8284 122.661 64.0411C122.661 65.5296 124.148 67.8686 124.997 67.8686C125.635 67.8686 128.608 70.5266 131.688 73.7162C134.874 76.9058 137.848 79.5638 138.485 79.5638C139.122 79.5638 139.653 79.9891 139.653 80.5207C139.653 80.9459 141.14 82.8597 142.839 84.6671C144.644 86.5809 146.025 88.8136 146.025 89.6642C146.025 90.5147 146.45 91.259 146.875 91.259C147.406 91.259 149.211 93.917 150.804 97.1066C152.503 100.296 154.309 102.954 154.733 102.954C155.158 102.954 155.583 103.911 155.583 105.081C155.583 106.25 156.114 107.207 156.645 107.207C157.282 107.207 157.707 108.376 157.707 109.865C157.707 111.353 158.238 112.523 158.769 112.523C159.406 112.523 159.831 114.437 159.831 116.776C159.831 119.115 160.362 121.029 160.893 121.029C161.53 121.029 161.955 123.474 161.955 126.345C161.955 130.172 162.592 132.405 163.973 133.893C165.991 136.02 165.991 136.02 166.522 133.043C167.053 129.853 169.07 123.793 170.557 120.816C171.088 119.753 171.513 116.988 171.513 114.649C171.513 112.31 172.044 110.397 172.575 110.397C173.212 110.397 173.637 105.4 173.637 97.6382C173.637 89.8768 173.212 84.8798 172.575 84.8798C172.044 84.8798 171.513 83.4976 171.513 81.7965C171.513 80.0954 170.876 77.1184 170.026 75.2047C167.902 70.2076 159.512 61.4894 156.751 61.4894C155.477 61.4894 154.521 60.9578 154.521 60.4262C154.521 59.7883 150.061 59.363 143.37 59.363C136.679 59.363 132.219 59.7883 132.219 60.4262Z" fill="#1F2E88"/>
<path d="M64.782 104.336C61.2774 108.589 60.003 111.885 60.003 116.776C60.003 119.646 60.534 122.092 61.065 122.092C61.7022 122.092 62.127 122.836 62.127 123.687C62.127 125.069 64.251 130.597 66.4812 135.063C67.0122 136.126 67.437 137.721 67.437 138.571C67.437 139.422 67.968 140.166 68.499 140.166C69.1362 140.166 69.561 141.548 69.561 143.356C69.561 145.057 70.092 146.545 70.623 146.545C71.2602 146.545 71.685 147.183 71.685 148.034C71.685 149.948 78.9066 162.919 80.2872 163.344C80.8182 163.557 81.243 164.407 81.243 165.364C81.243 168.022 84.5352 170.361 88.146 170.361C92.0754 170.361 95.049 167.916 95.049 164.726C95.049 163.45 95.58 162.493 96.111 162.493C96.7482 162.493 97.173 160.58 97.173 158.241C97.173 155.902 97.704 153.988 98.235 153.988C98.8722 153.988 99.297 152.818 99.297 151.33C99.297 149.841 99.6156 148.672 100.147 148.672C100.571 148.672 101.527 147.183 102.377 145.376C104.288 140.91 110.554 134.85 113.103 134.85C116.395 134.85 116.289 130.597 112.997 127.089C111.935 125.919 110.979 124.218 110.979 123.474C110.979 122.73 110.554 122.092 109.917 122.092C109.386 122.092 108.855 121.56 108.855 121.029C108.855 119.646 104.076 114.649 102.802 114.649C102.271 114.649 101.209 113.693 100.359 112.523C99.5094 111.353 98.0226 110.397 96.9606 110.397C95.8986 110.397 95.049 110.078 95.049 109.546C95.049 108.483 88.8894 105.081 86.9778 105.081C86.1282 105.081 85.491 104.549 85.491 104.017C85.491 102.423 66.0564 102.742 64.782 104.336Z" fill="#1F2E88"/>
</svg>
