<svg width="47" height="45" viewBox="0 0 47 45" fill="none" xmlns="http://www.w3.org/2000/svg">
<path d="M9.32554 0.42432C9.32554 0.636501 8.64732 0.848686 7.84193 0.848686C7.03655 0.848686 6.35832 1.01843 6.35832 1.27305C6.35832 1.48524 6.0616 1.69742 5.6801 1.69742C4.9171 1.69742 3.81499 2.67346 3.81499 3.35245C3.81499 3.60707 3.64544 3.81925 3.4335 3.81925C3.22155 3.81925 2.71289 4.58311 2.289 5.51672C1.86511 6.45033 1.39883 7.21419 1.18689 7.21419C1.01733 7.21419 0.847777 8.06292 0.847777 9.12384C0.847777 10.1848 0.678221 11.0335 0.423888 11.0335C0.169555 11.0335 0 12.2217 0 13.7919C0 15.3196 0.169555 16.5503 0.339111 16.5503C0.551055 16.5503 1.27166 16.0835 1.94989 15.4893C3.052 14.5133 3.51827 14.4284 7.12132 14.4284C9.45271 14.4284 11.0211 14.5982 11.0211 14.8528C11.0211 15.065 11.4874 15.2772 12.0384 15.2772C12.6319 15.2772 13.3525 15.5742 13.734 15.9137C14.0731 16.2532 14.6665 16.5503 15.0056 16.5503C15.3871 16.5503 15.6839 16.72 15.6839 16.9746C15.6839 17.1868 15.9806 17.399 16.3197 17.399C16.6588 17.399 16.9555 17.5687 16.9555 17.8234C16.9555 18.0355 17.2099 18.2477 17.5066 18.2477C18.0576 18.2477 20.3466 20.0725 20.3466 20.5393C20.3466 21.0061 21.4911 22.067 21.9574 22.067C22.1694 22.067 22.5932 22.6187 22.89 23.3401C23.1867 24.0191 23.5682 24.6132 23.7801 24.6132C23.9921 24.6132 24.1616 24.9103 24.1616 25.2498C24.1616 25.5893 24.3736 25.8863 24.5855 25.8863C24.8399 25.8863 25.0094 26.2683 25.0094 26.6926C25.0094 27.1594 25.1366 27.5838 25.3485 27.6687C25.942 27.9233 27.9766 31.4031 28.4853 33.0581C28.782 34.0342 29.1635 34.798 29.3331 34.798C29.545 34.798 29.6722 35.477 29.6722 36.2833C29.6722 37.0896 29.8841 37.7686 30.0961 37.7686C30.3504 37.7686 30.52 38.3203 30.52 39.0417C30.52 39.7207 30.7319 40.3148 30.9438 40.3148C31.1982 40.3148 31.3677 40.7816 31.3677 41.3333C31.3677 41.9274 31.6645 42.6488 32.0036 43.0308C32.3427 43.3702 32.6394 43.8795 32.6394 44.1341C32.6394 44.9404 34.6741 44.2614 35.861 43.0732C36.412 42.5215 36.8783 41.7577 36.8783 41.3757C36.8783 41.0362 37.0902 40.7392 37.3022 40.7392C37.5565 40.7392 37.7261 40.3572 37.7261 39.9329C37.7261 39.4661 37.8956 38.9993 38.1076 38.872C39.1673 38.193 39.5064 30.4695 38.6586 26.5229C38.3619 25.1225 37.9804 23.3401 37.8532 22.5763C37.7261 21.8548 37.4717 21.2183 37.2598 21.2183C37.0478 21.2183 36.8783 20.8364 36.8783 20.3696C36.8783 19.9028 36.7087 19.5208 36.4544 19.5208C36.2425 19.5208 36.0305 19.054 36.0305 18.4599C36.0305 17.8658 35.861 17.399 35.6066 17.399C35.3947 17.399 35.1827 17.1019 35.1827 16.8049C35.1827 16.4654 34.7165 15.6591 34.123 15.0225C33.5296 14.386 33.0633 13.707 33.0633 13.5373C33.0633 13.3251 31.9188 12.0095 30.52 10.5243C29.1211 9.0814 27.9766 7.72343 27.9766 7.55368C27.9766 7.38393 27.7647 7.21419 27.5104 7.21419C27.2136 7.21419 26.705 6.87469 26.3235 6.45033C25.942 6.0684 25.0942 5.43185 24.3736 5.09235C23.6954 4.75286 22.89 4.24362 22.5932 4.03144C22.2965 3.77682 21.7879 3.35245 21.4487 3.05539C21.1096 2.80077 20.5162 2.54615 20.1347 2.54615C19.7956 2.54615 19.4989 2.33397 19.4989 2.12179C19.4989 1.86716 19.0326 1.69742 18.4391 1.69742C17.8457 1.69742 17.3794 1.48524 17.3794 1.27305C17.3794 1.01843 16.8284 0.848686 16.1078 0.848686C15.4295 0.848686 14.8361 0.636501 14.8361 0.42432C14.8361 0.169697 13.6492 -4.95911e-05 12.0808 -4.95911e-05C10.5124 -4.95911e-05 9.32554 0.169697 9.32554 0.42432Z" fill="#0186D6"/>
<path d="M29.6724 0.424213C29.6724 0.636396 29.2061 0.848579 28.6127 0.848579C28.0193 0.848579 27.553 1.01833 27.553 1.27295C27.553 1.48513 27.1715 1.69731 26.7052 1.69731C26.2389 1.69731 25.8574 1.78219 25.8574 1.86706C25.8574 2.46117 26.4509 3.39478 26.79 3.39478C27.0443 3.39478 28.2312 4.4557 29.4605 5.7288C30.7321 7.0019 31.919 8.06282 32.1734 8.06282C32.4277 8.06282 32.6396 8.23256 32.6396 8.44475C32.6396 8.61449 33.2331 9.37836 33.9113 10.0998C34.6319 10.8636 35.183 11.7548 35.183 12.0943C35.183 12.4338 35.3525 12.7309 35.5221 12.7309C35.734 12.7309 36.4546 13.7918 37.0905 15.0649C37.7687 16.338 38.4893 17.3989 38.6588 17.3989C38.8284 17.3989 38.998 17.7808 38.998 18.2476C38.998 18.7144 39.2099 19.0964 39.4218 19.0964C39.6762 19.0964 39.8457 19.5632 39.8457 20.1573C39.8457 20.7514 40.0577 21.2182 40.2696 21.2182C40.524 21.2182 40.6935 21.9821 40.6935 22.9157C40.6935 23.8493 40.9055 24.6131 41.1174 24.6131C41.3717 24.6131 41.5413 25.5892 41.5413 26.735C41.5413 28.2627 41.7956 29.1539 42.3467 29.748C43.1521 30.5967 43.1521 30.5967 43.364 29.4085C43.576 28.1354 44.3813 25.7165 44.9748 24.5283C45.1867 24.1039 45.3563 23.0005 45.3563 22.0669C45.3563 21.1333 45.5682 20.3695 45.7802 20.3695C46.0345 20.3695 46.2041 18.3749 46.2041 15.2771C46.2041 12.1792 46.0345 10.1847 45.7802 10.1847C45.5682 10.1847 45.3563 9.63298 45.3563 8.95399C45.3563 8.275 45.102 7.08677 44.7628 6.32291C43.9151 4.32839 40.5663 0.848579 39.4642 0.848579C38.9556 0.848579 38.5741 0.636396 38.5741 0.424213C38.5741 0.169594 36.7937 -0.000154495 34.1232 -0.000154495C31.4527 -0.000154495 29.6724 0.169594 29.6724 0.424213Z" fill="#1F2E88"/>
<path d="M2.75515 17.9508C1.35632 19.6482 0.847656 20.9638 0.847656 22.9159C0.847656 24.0617 1.0596 25.0377 1.27154 25.0377C1.52588 25.0377 1.69543 25.3348 1.69543 25.6742C1.69543 26.2259 2.54321 28.4326 3.43337 30.215C3.64532 30.6393 3.81487 31.2759 3.81487 31.6154C3.81487 31.9549 4.02682 32.2519 4.23876 32.2519C4.4931 32.2519 4.66265 32.8036 4.66265 33.525C4.66265 34.204 4.87459 34.7981 5.08654 34.7981C5.34087 34.7981 5.51043 35.0528 5.51043 35.3922C5.51043 36.1561 8.39287 41.3334 8.94392 41.5031C9.15587 41.588 9.32542 41.9275 9.32542 42.3094C9.32542 43.3703 10.6395 44.304 12.0807 44.304C13.6491 44.304 14.836 43.3279 14.836 42.0548C14.836 41.5456 15.0479 41.1636 15.2599 41.1636C15.5142 41.1636 15.6837 40.3998 15.6837 39.4662C15.6837 38.5326 15.8957 37.7687 16.1076 37.7687C16.362 37.7687 16.5315 37.3019 16.5315 36.7078C16.5315 36.1137 16.6587 35.6469 16.8706 35.6469C17.0402 35.6469 17.4217 35.0528 17.7608 34.3313C18.5238 32.549 21.0247 30.1301 22.0421 30.1301C23.3561 30.1301 23.3137 28.4326 21.9997 27.0322C21.5758 26.5654 21.1943 25.8864 21.1943 25.5894C21.1943 25.2923 21.0247 25.0377 20.7704 25.0377C20.5585 25.0377 20.3465 24.8255 20.3465 24.6133C20.3465 24.0617 18.439 22.0671 17.9304 22.0671C17.7184 22.0671 17.2945 21.6852 16.9554 21.2184C16.6163 20.7516 16.0229 20.3697 15.599 20.3697C15.1751 20.3697 14.836 20.2423 14.836 20.0302C14.836 19.6058 12.3774 18.2478 11.6144 18.2478C11.2753 18.2478 11.021 18.0356 11.021 17.8235C11.021 17.1869 3.26382 17.3142 2.75515 17.9508Z" fill="#1F2E88"/>
</svg>
