<svg width="100" height="100" viewBox="0 0 100 100" fill="none" xmlns="http://www.w3.org/2000/svg">
<circle cx="50" cy="50" r="50" fill="white"/>
<path d="M34.8682 25.934C34.8682 26.1622 34.139 26.3903 33.2729 26.3903C32.4069 26.3903 31.6777 26.5728 31.6777 26.8466C31.6777 27.0748 31.3586 27.3029 30.9484 27.3029C30.128 27.3029 28.9429 28.3525 28.9429 29.0825C28.9429 29.3563 28.7606 29.5845 28.5327 29.5845C28.3048 29.5845 27.7578 30.4058 27.302 31.4097C26.8463 32.4136 26.3449 33.235 26.117 33.235C25.9347 33.235 25.7523 34.1476 25.7523 35.2883C25.7523 36.4291 25.57 37.3417 25.2966 37.3417C25.0231 37.3417 24.8408 38.6194 24.8408 40.3077C24.8408 41.9504 25.0231 43.2737 25.2054 43.2737C25.4333 43.2737 26.2081 42.7718 26.9374 42.133C28.1225 41.0835 28.6238 40.9922 32.4981 40.9922C35.005 40.9922 36.6914 41.1747 36.6914 41.4485C36.6914 41.6767 37.1928 41.9048 37.7853 41.9048C38.4234 41.9048 39.1983 42.2242 39.6085 42.5893C39.9731 42.9543 40.6112 43.2737 40.9759 43.2737C41.3861 43.2737 41.7051 43.4563 41.7051 43.73C41.7051 43.9582 42.0242 44.1864 42.3888 44.1864C42.7535 44.1864 43.0725 44.3689 43.0725 44.6427C43.0725 44.8708 43.346 45.099 43.665 45.099C44.2576 45.099 46.7189 47.0611 46.7189 47.563C46.7189 48.065 47.9495 49.2058 48.4509 49.2058C48.6788 49.2058 49.1346 49.799 49.4536 50.5747C49.7727 51.3048 50.1829 51.9436 50.4108 51.9436C50.6387 51.9436 50.821 52.263 50.821 52.6281C50.821 52.9931 51.0489 53.3125 51.2768 53.3125C51.5503 53.3125 51.7326 53.7232 51.7326 54.1795C51.7326 54.6815 51.8693 55.1378 52.0972 55.229C52.7353 55.5028 54.9232 59.2445 55.4701 61.0241C55.7892 62.0737 56.1994 62.895 56.3817 62.895C56.6096 62.895 56.7463 63.6251 56.7463 64.4921C56.7463 65.3591 56.9742 66.0892 57.2021 66.0892C57.4756 66.0892 57.6579 66.6824 57.6579 67.4581C57.6579 68.1882 57.8858 68.827 58.1137 68.827C58.3872 68.827 58.5695 69.329 58.5695 69.9222C58.5695 70.561 58.8886 71.3367 59.2532 71.7474C59.6178 72.1124 59.9369 72.66 59.9369 72.9338C59.9369 73.8008 62.1247 73.0707 63.4009 71.793C63.9935 71.1998 64.4948 70.3785 64.4948 69.9678C64.4948 69.6027 64.7227 69.2833 64.9506 69.2833C65.2241 69.2833 65.4064 68.8726 65.4064 68.4163C65.4064 67.9144 65.5887 67.4125 65.8166 67.2756C66.9561 66.5455 67.3207 58.2407 66.4092 53.997C66.0901 52.4912 65.6799 50.5747 65.5432 49.7533C65.4064 48.9776 65.1329 48.2931 64.905 48.2931C64.6771 48.2931 64.4948 47.8825 64.4948 47.3805C64.4948 46.8786 64.3125 46.4679 64.039 46.4679C63.8111 46.4679 63.5832 45.966 63.5832 45.3271C63.5832 44.6883 63.4009 44.1864 63.1274 44.1864C62.8995 44.1864 62.6716 43.8669 62.6716 43.5475C62.6716 43.1825 62.1703 42.3155 61.5322 41.631C60.8941 40.9466 60.3927 40.2165 60.3927 40.0339C60.3927 39.8058 59.162 38.3912 57.6579 36.7942C56.1538 35.2427 54.9232 33.7825 54.9232 33.6C54.9232 33.4175 54.6953 33.235 54.4218 33.235C54.1027 33.235 53.5558 32.8699 53.1456 32.4136C52.7353 32.0029 51.8238 31.3185 51.0489 30.9534C50.3196 30.5884 49.4536 30.0408 49.1346 29.8126C48.8155 29.5389 48.2686 29.0825 47.9039 28.7631C47.5393 28.4893 46.9012 28.2156 46.491 28.2156C46.1263 28.2156 45.8073 27.9874 45.8073 27.7593C45.8073 27.4855 45.3059 27.3029 44.6678 27.3029C44.0297 27.3029 43.5283 27.0748 43.5283 26.8466C43.5283 26.5728 42.9358 26.3903 42.1609 26.3903C41.4317 26.3903 40.7935 26.1622 40.7935 25.934C40.7935 25.6602 39.5173 25.4777 37.8309 25.4777C36.1444 25.4777 34.8682 25.6602 34.8682 25.934Z" fill="#0186D6"/>
<path d="M56.7463 25.934C56.7463 26.1622 56.245 26.3903 55.6069 26.3903C54.9687 26.3903 54.4674 26.5728 54.4674 26.8466C54.4674 27.0748 54.0572 27.3029 53.5558 27.3029C53.0544 27.3029 52.6442 27.3942 52.6442 27.4855C52.6442 28.1243 53.2823 29.1282 53.6469 29.1282C53.9204 29.1282 55.1966 30.2689 56.5184 31.6379C57.8858 33.0068 59.162 34.1476 59.4355 34.1476C59.709 34.1476 59.9369 34.3301 59.9369 34.5582C59.9369 34.7408 60.575 35.5621 61.3043 36.3379C62.0791 37.1592 62.6717 38.1175 62.6717 38.4825C62.6717 38.8475 62.854 39.167 63.0363 39.167C63.2642 39.167 64.039 40.3077 64.7227 41.6767C65.452 43.0456 66.2269 44.1864 66.4092 44.1864C66.5915 44.1864 66.7738 44.597 66.7738 45.099C66.7738 45.6009 67.0017 46.0116 67.2296 46.0116C67.5031 46.0116 67.6854 46.5135 67.6854 47.1524C67.6854 47.7912 67.9133 48.2931 68.1412 48.2931C68.4147 48.2931 68.597 49.1145 68.597 50.1184C68.597 51.1222 68.8249 51.9436 69.0528 51.9436C69.3263 51.9436 69.5086 52.9931 69.5086 54.2251C69.5086 55.8679 69.782 56.8261 70.3746 57.4649C71.2406 58.3776 71.2406 58.3776 71.4685 57.0999C71.6964 55.731 72.5624 53.13 73.2005 51.8523C73.4284 51.396 73.6107 50.2096 73.6107 49.2058C73.6107 48.2019 73.8386 47.3805 74.0665 47.3805C74.34 47.3805 74.5223 45.2359 74.5223 41.9048C74.5223 38.5738 74.34 36.4291 74.0665 36.4291C73.8386 36.4291 73.6107 35.8359 73.6107 35.1058C73.6107 34.3757 73.3372 33.0981 72.9726 32.2767C72.061 30.1321 68.4602 26.3903 67.2752 26.3903C66.7282 26.3903 66.318 26.1622 66.318 25.934C66.318 25.6602 64.4037 25.4777 61.5322 25.4777C58.6607 25.4777 56.7463 25.6602 56.7463 25.934Z" fill="#1F2E88"/>
<path d="M27.8034 44.7795C26.2993 46.6048 25.7523 48.0193 25.7523 50.1184C25.7523 51.3504 25.9802 52.3999 26.2081 52.3999C26.4816 52.3999 26.6639 52.7193 26.6639 53.0844C26.6639 53.6776 27.5755 56.0504 28.5327 57.9669C28.7606 58.4232 28.9429 59.1076 28.9429 59.4727C28.9429 59.8377 29.1708 60.1571 29.3987 60.1571C29.6722 60.1571 29.8545 60.7503 29.8545 61.5261C29.8545 62.2562 30.0824 62.895 30.3103 62.895C30.5838 62.895 30.7661 63.1688 30.7661 63.5338C30.7661 64.3552 33.8655 69.9222 34.458 70.1047C34.6859 70.1959 34.8682 70.561 34.8682 70.9717C34.8682 72.1124 36.2812 73.1163 37.8309 73.1163C39.5173 73.1163 40.7935 72.0668 40.7935 70.6979C40.7935 70.1503 41.0214 69.7396 41.2493 69.7396C41.5228 69.7396 41.7051 68.9183 41.7051 67.9144C41.7051 66.9105 41.933 66.0892 42.1609 66.0892C42.4344 66.0892 42.6167 65.5872 42.6167 64.9484C42.6167 64.3096 42.7535 63.8076 42.9814 63.8076C43.1637 63.8076 43.5739 63.1688 43.9385 62.3931C44.759 60.4766 47.4481 57.8756 48.542 57.8756C49.955 57.8756 49.9094 56.0504 48.4965 54.5446C48.0407 54.0426 47.6305 53.3125 47.6305 52.9931C47.6305 52.6737 47.4481 52.3999 47.1747 52.3999C46.9468 52.3999 46.7189 52.1717 46.7189 51.9436C46.7189 51.3504 44.6678 49.2057 44.1208 49.2057C43.8929 49.2057 43.4372 48.7951 43.0725 48.2931C42.7079 47.7912 42.0698 47.3805 41.614 47.3805C41.1582 47.3805 40.7935 47.2436 40.7935 47.0155C40.7935 46.5592 38.1499 45.099 37.3295 45.099C36.9649 45.099 36.6914 44.8708 36.6914 44.6427C36.6914 43.9582 28.3504 44.0951 27.8034 44.7795Z" fill="#1F2E88"/>
</svg>
